<!--?xml version="1.0" encoding="utf-8"?-->
<!-- Generator: Adobe Illustrator 22.1.0, SVG Export Plug-In . SVG Version: 6.00 Build 0)  -->
<svg version="1.1" id="_x32_" xmlns="http://www.w3.org/2000/svg" xmlns:xlink="http://www.w3.org/1999/xlink" x="0px" y="0px" viewBox="0 0 720 480" style="enable-background:new 0 0 720 480;" xml:space="preserve">
<style type="text/css">
	.st0{fill:#FFBE72;}
	.st1{fill:#FFAA5E;}
	.st2{fill:#5B7594;}
	.st3{fill:#56708F;}
	.st4{fill:#4C6685;}
	.st5{fill:#476180;}
	.st6{fill:#EBEBEB;}
	.st7{fill:#F5F5F5;}
	.st8{fill:#FFFFFF;}
	.st9{fill:#E6E6E6;}
	.st10{fill:#E1E1E1;}
	.st11{fill:#DCDCDC;}
	.st12{fill:#FAFAFA;}
	.st13{fill:#CDCDCD;}
	.st14{fill:#C3C3C3;}
	.st15{fill:#C8C8C8;}
</style>
<g>
	<g>
		<g>
			<g>
				<rect class="st0" width="720" height="480" style="opacity: 1;"></rect>
			</g>
		</g>
		<polygon class="st1" points="714.803,381.623 714.803,476.843 352.043,476.843 98.639,223.451 481.727,288.023 621.791,288.611 		
			" style="opacity: 1; stroke: none; stroke-width: 7px;"></polygon>
	</g>
	<g>
		<g>
			<polygon class="st2" points="98.212,216.024 296.488,100.799 442.862,182.759 244.586,297.984 			" style="opacity: 1;"></polygon>
			<polygon class="st2" points="475.292,208.815 277.016,324.04 277.135,323.952 475.412,208.727 			" style="opacity: 1;"></polygon>
			<path class="st3" d="M475.312,201.65L277.036,316.876c-1.606,0.933-9.368-2.088-16.175-6.018
				c-6.997-4.04-15-10.203-16.275-12.874l198.276-115.225c1.275,2.67,9.278,8.834,16.275,12.874
				C465.944,199.562,473.706,202.584,475.312,201.65z" style="opacity: 1;"></path>
			<polygon class="st4" points="423.512,403.837 621.788,288.611 621.325,295.524 423.049,410.749 			" style="opacity: 1;"></polygon>
			<polygon class="st2" points="277.156,316.789 475.432,201.563 621.788,288.611 423.512,403.837 			" style="opacity: 1;"></polygon>
			<path class="st5" d="M277.156,316.789l146.356,87.048l-0.463,6.913l-145.913-86.797c-1.291,1.189-9.297-1.886-16.295-5.926
				c-6.997-4.04-15-10.208-16.276-12.879L98.639,223.451l-0.427-7.427l146.374,81.959c1.275,2.671,9.278,8.835,16.275,12.874
				C267.858,314.898,275.866,317.977,277.156,316.789z" style="opacity: 1; stroke: none; stroke-width: 7px;"></path>
		</g>
		<g>
			<polygon class="st6" points="123.468,195.151 312.931,85.047 422.938,142.43 233.474,252.535 			" style="opacity: 1; stroke: none; stroke-width: 7px;"></polygon>
			<path class="st7" d="M124.903,188.124L314.367,78.02c12.21,4.219,24.486,9.267,36.851,14.862
				c11.279,5.195,22.621,10.891,34.004,17.462c1.093,0.631,2.189,1.272,3.283,1.919L199.041,222.369
				c-1.095-0.648-2.19-1.288-3.283-1.919c-11.383-6.572-22.725-12.267-34.003-17.462
				C149.389,197.391,137.113,192.343,124.903,188.124z" style="opacity: 1;"></path>
			<path class="st8" d="M134.473,171.753L323.936,61.649c1.046,0.476,4.268,1.913,9.071,4.296
				c4.807,2.385,11.21,5.724,18.674,10.033L162.218,186.082c-7.464-4.309-13.867-7.648-18.674-10.033
				C138.741,173.667,135.519,172.229,134.473,171.753z" style="opacity: 1;"></path>
			<polygon class="st9" points="199.041,222.369 388.504,112.264 393.19,115.158 203.726,225.262 			" style="opacity: 1;"></polygon>
			<path class="st9" d="M203.726,225.262L393.19,115.158c1.56,0.965,3.121,1.894,4.681,2.955L208.407,228.217
				C206.848,227.156,205.286,226.227,203.726,225.262z" style="opacity: 1;"></path>
			<polygon class="st10" points="208.407,228.217 397.871,118.113 402.56,121.22 213.096,231.324 			" style="opacity: 1;"></polygon>
			<polygon class="st11" points="213.096,231.324 402.56,121.22 403.729,121.996 214.265,232.1 			" style="opacity: 1;"></polygon>
			<polygon class="st11" points="214.265,232.1 403.729,121.996 404.895,122.811 215.431,232.915 			" style="opacity: 1;"></polygon>
			<polygon class="st11" points="215.431,232.915 404.895,122.811 407.216,124.436 217.753,234.541 			" style="opacity: 1;"></polygon>
			<path class="st11" d="M233.474,252.535L422.938,142.43c0.027,0.014,0.533,0.277,1.473,0.82c0.553,0.319,1.247,0.73,2.055,1.231
				L237.002,254.585c-0.808-0.501-1.502-0.912-2.054-1.231C234.007,252.811,233.501,252.548,233.474,252.535z" style="opacity: 1;"></path>
			<path class="st11" d="M217.753,234.541l189.464-110.105c3.104,2.224,6.2,4.471,9.288,6.824c3.087,2.371,6.167,4.824,9.23,7.374
				c3.059,2.551,6.102,5.236,9.112,8.054L245.384,256.792c-3.01-2.818-6.053-5.503-9.113-8.054c-3.063-2.549-6.143-5.003-9.23-7.374
				C223.953,239.012,220.857,236.765,217.753,234.541z" style="opacity: 1;"></path>
			<path class="st8" d="M162.218,186.082L351.682,75.978c14.13,8.158,32.052,19.787,50.136,35.028
				c16.376,13.806,32.896,30.579,46.813,50.444L259.167,271.553c-13.917-19.864-30.437-36.637-46.813-50.443
				C194.27,205.869,176.348,194.24,162.218,186.082z" style="opacity: 1;"></path>
			<path class="st12" d="M259.167,271.553l189.464-110.104c1.183,1.506,2.338,3.073,3.441,4.716
				c1.294,1.937,2.527,3.981,3.572,6.211c0.513,1.118,0.985,2.273,1.317,3.49c0.19,0.675,0.348,1.368,0.446,2.054L267.944,288.023
				c-0.098-0.686-0.256-1.379-0.446-2.054c-0.333-1.216-0.805-2.371-1.317-3.489c-1.045-2.23-2.279-4.274-3.573-6.211
				C261.505,274.626,260.35,273.059,259.167,271.553z" style="opacity: 1;"></path>
			<path class="st12" d="M270.876,285.511L460.34,175.407c9.117-5.298,25.199,3.135,30.146,5.992
				c0.951,0.549,1.465,0.875,1.491,0.893L302.514,292.395c-0.027-0.017-0.54-0.343-1.491-0.893
				C296.075,288.646,279.993,280.213,270.876,285.511z" style="opacity: 1;"></path>
			<polygon class="st8" points="302.514,292.395 491.978,182.291 601.949,251.911 412.486,362.015 			" style="opacity: 1;"></polygon>
			<path class="st13" d="M162.218,186.082c14.13,8.158,32.052,19.787,50.136,35.029c16.376,13.806,32.897,30.579,46.813,50.443
				c1.183,1.506,2.338,3.073,3.441,4.716c1.294,1.937,2.528,3.981,3.573,6.211c0.512,1.118,0.985,2.273,1.317,3.489
				c0.19,0.675,0.347,1.368,0.446,2.054c8.058-9.899,27.541,0.283,33.079,3.479c0.951,0.549,1.464,0.875,1.491,0.893l109.972,69.62
				l6.579,28.872l-134.876-77.87l-16.29-6.405l-16.277-12.398l-134.876-77.87l6.721-21.194l110.006,57.384
				c0.027,0.013,0.534,0.277,1.474,0.819c0.553,0.319,1.246,0.731,2.054,1.231c-0.562-0.467-1.125-0.934-1.687-1.392
				c-5.959-4.838-12.008-9.349-18.088-13.646l-2.286-1.591c-0.762-0.532-1.524-1.059-2.283-1.552l-4.557-3.035
				c-1.516-1.045-3.049-1.958-4.578-2.914l-4.586-2.845c-1.643-0.98-3.286-1.944-4.93-2.894
				c-10.609-6.126-21.253-11.625-31.875-16.743c-6.133-2.93-12.262-5.742-18.383-8.454c-6.113-2.698-12.243-5.272-18.301-7.686
				l-0.255-1.723l-0.161-1.094l-0.129-0.893c12.21,4.219,24.485,9.267,36.851,14.863c11.278,5.195,22.62,10.89,34.003,17.462
				c1.093,0.631,2.189,1.272,3.283,1.919l4.685,2.893c1.56,0.965,3.122,1.894,4.681,2.955l4.689,3.107l1.169,0.776l1.165,0.815
				l2.322,1.626c3.104,2.224,6.2,4.471,9.288,6.823c3.087,2.371,6.167,4.824,9.23,7.374c3.059,2.552,6.102,5.236,9.113,8.054
				c-10.14-12.296-21.854-23.643-33.536-33.489c-17.856-15.05-35.626-26.587-49.636-34.676c-7.401-4.272-13.756-7.583-18.519-9.948
				c-4.767-2.361-7.929-3.774-9-4.263l-0.22-2.663c1.046,0.476,4.269,1.913,9.072,4.296
				C148.351,178.434,154.754,181.773,162.218,186.082z" style="opacity: 1;"></path>
			<polygon class="st11" points="608.529,280.785 419.066,390.889 418.166,386.938 417.891,385.744 417.222,382.793 
				416.947,381.599 416.278,378.648 416.003,377.454 415.328,374.497 415.059,373.309 414.384,370.359 414.115,369.164 
				413.44,366.214 413.171,365.02 412.483,362.013 601.952,251.908 602.633,254.909 602.908,256.103 603.577,259.054 
				603.852,260.255 604.521,263.205 604.796,264.399 605.465,267.35 605.74,268.544 606.416,271.495 606.684,272.695 
				607.36,275.646 607.628,276.84 			" style="opacity: 1;"></polygon>
		</g>
		<g>
			<path class="st14" d="M288.044,307.117c0.331,0.192,0.666,0.39,0.998,0.595l128.83,78.064l0.272,1.186l-129.129-78.246
				c-0.324-0.196-0.651-0.389-0.974-0.576c-3.804-2.196-7.59-3.748-11.238-4.595l-8.901-2.08l-8.888-8.191
				c-3.64-3.36-7.423-6.178-11.227-8.374c-0.324-0.186-0.651-0.371-0.974-0.548l-129.147-70.869l0.275-0.871l128.85,70.708
				c0.336,0.18,0.667,0.367,0.998,0.558c3.891,2.247,7.761,5.134,11.486,8.57l8.63,7.954l8.642,2.017
				C280.279,303.287,284.152,304.87,288.044,307.117z" style="opacity: 1;"></path>
			<path class="st14" d="M289.991,304.236c0.419,0.242,0.822,0.479,1.197,0.71l125.739,76.68l0.269,1.189L291.162,305.95
				c-0.367-0.226-0.762-0.458-1.173-0.696c-3.408-1.968-8.108-4.254-12.495-5.004c-0.452-0.077-2.873-0.543-5.251-0.905
				c-1.187-0.184-2.361-0.339-3.265-0.41c-0.432-0.034-0.799-0.044-1.067-0.028c-0.271-0.327-0.638-0.741-1.068-1.205
				c-0.901-0.97-2.073-2.17-3.256-3.355c-2.372-2.38-4.785-4.706-5.239-5.151c-4.377-4.31-9.074-7.449-12.483-9.417
				c-0.411-0.237-0.806-0.461-1.173-0.659l-126.058-68.682l0.278-0.873l125.758,68.523c0.379,0.205,0.778,0.431,1.198,0.673
				c3.476,2.007,8.257,5.195,12.782,9.65c0.355,0.347,2.057,1.987,3.971,3.887c1.914,1.895,4.031,4.036,5.294,5.463
				c1.263,0.031,3.385,0.338,5.304,0.655c1.918,0.313,3.625,0.64,3.98,0.703C281.732,299.894,286.519,302.231,289.991,304.236z" style="opacity: 1;"></path>
			<path class="st14" d="M292.134,301.467c0.455,0.263,0.858,0.5,1.205,0.714l122.641,75.295l0.272,1.191l-122.94-75.482
				c-0.339-0.205-0.734-0.442-1.181-0.7c-3.157-1.823-8.75-4.698-13.965-5.532c-0.879-0.145-3.333-0.514-5.687-0.683
				c-1.18-0.089-2.33-0.123-3.246-0.06c-0.456,0.035-0.852,0.092-1.156,0.178c-0.626-0.623-1.016-1.134-1.474-1.697
				c-0.908-1.117-2.06-2.411-3.232-3.681c-2.351-2.548-4.799-5.008-5.672-5.875c-5.206-5.184-10.798-8.766-13.955-10.588
				c-0.447-0.258-0.842-0.477-1.181-0.664l-122.966-66.492l0.278-0.873l122.662,66.331c0.351,0.189,0.755,0.418,1.209,0.68
				c3.217,1.857,8.892,5.487,14.258,10.823c1.169,1.162,5.036,5.048,7.888,8.34c0.774,0.892,1.466,1.733,2.028,2.489
				c0.56-0.109,1.256-0.148,2.031-0.145c2.863,0.008,6.743,0.595,7.91,0.781C283.24,296.686,288.917,299.61,292.134,301.467z" style="opacity: 1;"></path>
			<path class="st14" d="M294.233,298.673c0.527,0.304,0.95,0.557,1.257,0.744l119.546,73.913l0.269,1.189l-119.846-74.099
				c-0.299-0.183-0.714-0.431-1.229-0.728c-3.021-1.745-9.425-5.125-15.395-6.036c-1.306-0.203-3.789-0.483-6.123-0.462
				c-1.167,0.01-2.303,0.09-3.231,0.289c-0.636,0.134-1.172,0.33-1.557,0.576c-0.386-0.692-0.919-1.505-1.553-2.371
				c-0.924-1.269-2.051-2.654-3.219-4.013c-2.327-2.713-4.802-5.295-6.106-6.599c-5.956-5.974-12.357-9.987-15.379-11.732
				c-0.515-0.297-0.93-0.527-1.229-0.691l-119.873-64.303l0.274-0.875l119.57,64.141c0.311,0.17,0.739,0.408,1.261,0.71
				c3.078,1.777,9.562,5.833,15.69,11.971c1.001,1.006,2.655,2.719,4.421,4.68s3.642,4.166,5.104,6.172
				c0.379,0.517,0.729,1.023,1.043,1.512c0.316-0.125,0.664-0.227,1.044-0.306c1.468-0.314,3.352-0.348,5.126-0.266
				c1.771,0.081,3.426,0.278,4.429,0.43C284.668,293.463,291.156,296.896,294.233,298.673z" style="opacity: 1;"></path>
			<path class="st14" d="M296.3,295.856c0.639,0.369,1.102,0.65,1.341,0.797l116.448,72.523l0.272,1.195l-116.747-72.715
				c-0.239-0.147-0.69-0.421-1.317-0.783c-3.026-1.747-10.144-5.539-16.793-6.516c-1.739-0.259-4.241-0.441-6.56-0.236
				c-1.16,0.102-2.276,0.299-3.224,0.633c-0.705,0.245-1.317,0.567-1.79,0.97c-0.469-0.946-1.078-1.973-1.783-3.032
				c-0.943-1.427-2.054-2.909-3.21-4.347c-2.31-2.878-4.805-5.582-6.54-7.327c-6.634-6.692-13.749-11.117-16.775-12.864
				c-0.626-0.361-1.078-0.608-1.313-0.735l-116.781-62.113l0.278-0.878l116.473,61.954c0.248,0.134,0.707,0.385,1.346,0.753
				c3.081,1.784,10.281,6.249,17.09,13.111c2.667,2.688,7.023,7.496,9.997,11.978c0.442,0.668,0.847,1.325,1.222,1.973
				c0.372-0.217,0.781-0.404,1.225-0.56c2.989-1.04,7.358-0.81,10.036-0.412C286.017,290.231,293.219,294.081,296.3,295.856z" style="opacity: 1;"></path>
			<path class="st14" d="M193.455,221.318c6.742,3.892,13.435,8.046,19.791,12.418c15.598,10.733,27.833,21.334,36.902,30.709
				c5.749,5.938,10.23,11.387,13.487,16.066c1.207,1.735,2.238,3.488,3.1,5.139c0.656,1.202,0.851,1.654,1.046,2.106
				c0.399,0.056,0.652-0.221,0.917-0.481c1.169-0.685,2.542-1.115,3.99-1.363c2.372-0.404,4.946-0.31,7.172,0.011
				c7.445,1.069,15.297,5.267,18.494,7.108c0.791,0.456,1.302,0.774,1.437,0.857l113.353,71.141l0.272,1.195l-113.66-71.337
				c-0.148-0.09-0.635-0.394-1.405-0.838c-3.137-1.811-10.91-5.95-18.179-6.991c-2.17-0.316-4.697-0.405-7.001-0.012
				c-2.06,0.349-3.937,1.094-5.236,2.379c-1.288-2.778-3.155-5.684-5.21-8.41c-2.294-3.047-4.813-5.87-6.978-8.058
				c-7.251-7.343-15.018-12.175-18.159-13.989c-0.77-0.444-1.253-0.701-1.405-0.784l-113.689-59.923l0.274-0.88l113.382,59.764
				c0.14,0.076,0.65,0.348,1.441,0.804c3.197,1.85,11.047,6.718,18.474,14.236c0.351,0.354,0.714,0.733,1.081,1.115
				c-0.422-0.501-0.857-1.014-1.303-1.529c-3.324-3.844-7.278-7.996-11.879-12.353c-8.19-7.77-18.433-16.206-30.806-24.719
				c-6.324-4.35-12.989-8.487-19.707-12.365c-29.709-17.157-60.527-29.226-68.271-32.153l-0.161-1.099
				C132.78,192.025,163.639,204.103,193.455,221.318z" style="opacity: 1;"></path>
		</g>
		<polygon class="st15" points="602.908,256.103 413.44,366.214 413.415,366.226 413.146,365.032 413.171,365.02 602.633,254.909 		
			" style="opacity: 1;"></polygon>
		<polygon class="st15" points="603.852,260.255 414.384,370.359 414.359,370.371 414.09,369.177 414.115,369.164 603.577,259.054 
					" style="opacity: 1;"></polygon>
		<polygon class="st15" points="604.796,264.399 415.328,374.497 415.303,374.516 415.034,373.322 415.059,373.309 604.521,263.205 
					" style="opacity: 1;"></polygon>
		<polygon class="st15" points="605.74,268.544 416.278,378.648 416.247,378.667 415.978,377.467 416.003,377.454 605.465,267.35 		
			" style="opacity: 1;"></polygon>
		<polygon class="st15" points="606.684,272.695 417.222,382.793 417.191,382.812 416.922,381.618 416.947,381.599 606.416,271.495 
					" style="opacity: 1;"></polygon>
		<polygon class="st15" points="607.628,276.84 418.166,386.938 418.135,386.957 417.866,385.763 417.891,385.744 607.36,275.646 		
			" style="opacity: 1;"></polygon>
	</g>
</g>
</svg>
